# xmcd CD database file
#
# Track frame offsets:
#	150
#	14965
#	28827
#	41328
#	54575
#	67234
#	78573
#	92212
#	104016
#	113801
#	125124
#	135976
#	148833
#	160024
#	173189
#	186068
#	199184
#	212293
#	224598
#	236815
#	249427
#	260954
#	276145
#	289105
#	302982
#	317050
#
# Disc length: 4429 seconds
#
# Revision: 1
# Processed by: cddbd v1.4PL0 Copyright (c) Steve Scherf et al.
# Submitted via: CDex 1.51
#
DISCID=9e114b1a
DTITLE=Stan Getz - Stan Getz - The Sound - Dear Old Stockholm
DYEAR=1900
DGENRE=Jazz
TTITLE0=The Lady In Red
TTITLE1=Wrap Your Troubles In Dreams
TTITLE2=On The Alamo
TTITLE3=Gone With The Wind
TTITLE4=Yesterdays
TTITLE5=Sweetie Pie
TTITLE6=You Go To My Head
TTITLE7=Hershey Bar
TTITLE8=Tootsie Roll
TTITLE9=Strike Up The Band
TTITLE10=Imagination
TTITLE11=For Stompers Only
TTITLE12=Out Of Nowhere
TTITLE13='s Wonderful
TTITLE14=Penny
TTITLE15=Split Kick
TTITLE16=It Might As Well Be Spring
TTITLE17=The Best Thing For You
TTITLE18=S'Cool Boy
TTITLE19=Ack Varmeland Du Skona
TTITLE20=I'm Getting Sentimental Over You
TTITLE21=I Only Have Eyes For You
TTITLE22=Prelude To A Kiss
TTITLE23=Night And Day
TTITLE24=Don't Be Afraid
TTITLE25=Flamingo
EXTD=
EXTT0=
EXTT1=
EXTT2=
EXTT3=
EXTT4=
EXTT5=
EXTT6=
EXTT7=
EXTT8=
EXTT9=
EXTT10=
EXTT11=
EXTT12=
EXTT13=
EXTT14=
EXTT15=
EXTT16=
EXTT17=
EXTT18=
EXTT19=
EXTT20=
EXTT21=
EXTT22=
EXTT23=
EXTT24=
EXTT25=
PLAYORDER=
